<svg xmlns="http://www.w3.org/2000/svg" viewBox="0 0 32 32">
  <rect width="32" height="32" rx="8" fill="#0a0e18"/>
  <!-- leaf shape -->
  <path fill="#22c55e" d="M22 6c-6 0-10 3.5-11 9.5C9.5 19 8 21.5 6 23.5c.5.5 1 .5 1.5 0C9 22 10.5 20 11.5 18c.5 1.5.5 3 0 5 .8.3 1.5 0 2-1 1-2.5 1-5 .5-7.5C15.5 17 15 20 14 23c1 .5 2 0 2.5-1C18 19.5 18.5 16 18 13c1 2 1.5 4.5 1 7 1-.5 1.8-1.5 2-3 .5-2 .5-4-.5-6 .5 1 .8 2.5.5 4 1.5-1.5 2.5-4 2-7-.5-2.5-1-4-1-2z"/>
  <!-- stem -->
  <path stroke="#16a34a" stroke-width="1.5" stroke-linecap="round" fill="none" d="M11 26 Q13 20 16 14"/>
</svg>
